<mxfile host="app.diagrams.net" modified="2020-07-01T09:23:22.523Z" agent="5.0 (Windows NT 10.0; Win64; x64) AppleWebKit/537.36 (KHTML, like Gecko) Chrome/83.0.4103.97 Safari/537.36" etag="_SIGgRmeRjl-L1evbqGU" version="13.3.5" type="github">
  <diagram id="j5jGDYiYoJaAC8GBMtbi" name="Page-1">
    <mxGraphModel dx="985" dy="610" grid="1" gridSize="10" guides="1" tooltips="1" connect="1" arrows="1" fold="1" page="1" pageScale="1" pageWidth="850" pageHeight="1100" math="0" shadow="0">
      <root>
        <mxCell id="0" />
        <mxCell id="1" parent="0" />
        <mxCell id="XVZEMdXODI57lnIMXVsI-1" value="&amp;nbsp;Success!" style="rounded=1;whiteSpace=wrap;html=1;" vertex="1" parent="1">
          <mxGeometry x="450" y="300" width="130" height="70" as="geometry" />
        </mxCell>
        <mxCell id="XVZEMdXODI57lnIMXVsI-2" value="" style="whiteSpace=wrap;html=1;aspect=fixed;" vertex="1" parent="1">
          <mxGeometry x="90" y="270" width="260" height="260" as="geometry" />
        </mxCell>
        <mxCell id="XVZEMdXODI57lnIMXVsI-3" value="LOGIN&amp;nbsp;" style="rounded=0;whiteSpace=wrap;html=1;" vertex="1" parent="1">
          <mxGeometry x="90" y="270" width="260" height="40" as="geometry" />
        </mxCell>
        <mxCell id="XVZEMdXODI57lnIMXVsI-13" style="edgeStyle=none;rounded=0;orthogonalLoop=1;jettySize=auto;html=1;exitX=0.894;exitY=1.002;exitDx=0;exitDy=0;exitPerimeter=0;shape=link;" edge="1" parent="1" source="XVZEMdXODI57lnIMXVsI-6">
          <mxGeometry relative="1" as="geometry">
            <mxPoint x="280" y="390" as="targetPoint" />
            <Array as="points">
              <mxPoint x="280" y="390" />
            </Array>
          </mxGeometry>
        </mxCell>
        <mxCell id="XVZEMdXODI57lnIMXVsI-6" value="account:" style="text;html=1;resizable=0;autosize=1;align=center;verticalAlign=middle;points=[];fillColor=none;strokeColor=none;rounded=0;" vertex="1" parent="1">
          <mxGeometry x="120" y="370" width="60" height="20" as="geometry" />
        </mxCell>
        <mxCell id="XVZEMdXODI57lnIMXVsI-7" value="password:" style="text;html=1;resizable=0;autosize=1;align=center;verticalAlign=middle;points=[];fillColor=none;strokeColor=none;rounded=0;" vertex="1" parent="1">
          <mxGeometry x="115" y="410" width="70" height="20" as="geometry" />
        </mxCell>
        <mxCell id="XVZEMdXODI57lnIMXVsI-15" style="edgeStyle=none;rounded=0;orthogonalLoop=1;jettySize=auto;html=1;exitX=0.894;exitY=1.002;exitDx=0;exitDy=0;exitPerimeter=0;shape=link;" edge="1" parent="1">
          <mxGeometry relative="1" as="geometry">
            <mxPoint x="286.36" y="430" as="targetPoint" />
            <mxPoint x="180" y="430.0400000000001" as="sourcePoint" />
            <Array as="points">
              <mxPoint x="286.36" y="430" />
            </Array>
          </mxGeometry>
        </mxCell>
        <mxCell id="XVZEMdXODI57lnIMXVsI-16" value="OK" style="text;html=1;resizable=0;autosize=1;align=center;verticalAlign=middle;points=[];fillColor=none;strokeColor=none;rounded=0;" vertex="1" parent="1">
          <mxGeometry x="205" y="460" width="30" height="20" as="geometry" />
        </mxCell>
        <mxCell id="XVZEMdXODI57lnIMXVsI-17" value="Failed!" style="rounded=1;whiteSpace=wrap;html=1;" vertex="1" parent="1">
          <mxGeometry x="450" y="400" width="130" height="70" as="geometry" />
        </mxCell>
      </root>
    </mxGraphModel>
  </diagram>
</mxfile>
